<?xml version="1.0" encoding="utf-8"?>
<!-- Svg Vector Icons : http://www.onlinewebfonts.com/icon -->
<!DOCTYPE svg PUBLIC "-//W3C//DTD SVG 1.1//EN" "http://www.w3.org/Graphics/SVG/1.1/DTD/svg11.dtd">
<svg version="1.1" xmlns="http://www.w3.org/2000/svg" xmlns:xlink="http://www.w3.org/1999/xlink" x="0px" y="0px" viewBox="0 0 1000 1000" enable-background="new 0 0 1000 1000" xml:space="preserve">
<metadata> Svg Vector Icons : http://www.onlinewebfonts.com/icon </metadata>
<g><g transform="translate(0.000000,512.000000) scale(0.100000,-0.100000)"><path d="M942.2,3498.3V1976.6H521.1H100v-507.2V962.2h256.5h258.4l7.7-1276.7l5.7-1278.6l49.8-201C984.3-3024.8,1855.2-3895.7,3085.9-4202l201-49.8l1278.6-5.7l1276.7-7.6v-258.4V-4780h507.2h507.2v421.1v421.1h1521.7H9900v1856.6v1856.6H8378.3H6856.6v421.1v421.1h-507.2h-507.2V368.8V120l-415.4,3.8l-417.3,5.7l-5.7,417.3l-3.8,415.4h248.8h248.8v507.2v507.2h-421.1h-421.1v1521.7V5020H2798.8H942.2V3498.3z M4330.1,3326.1V1976.6H2808.4H1286.7v1349.4v1349.4h1521.7h1521.7V3326.1z M5130.2,1632.1c40.2,0,42.1-7.7,42.1-162.7v-162.7H2808.4H444.5v168.4v166.5l2319.8-3.8C4041.1,1635.9,5105.3,1632.1,5130.2,1632.1z M4659.3,535.4l5.7-428.8l57.4-93.8c67-107.2,181.8-193.3,289-218.2c40.2-9.6,245-19.1,453.6-19.1h377.1v-1858.5v-1856.6l-1219.3,7.6c-1068,5.7-1242.2,9.6-1393.4,40.2C2194-3689,1390.1-2982.7,1078.1-1998.9c-120.6,382.8-122.5,384.7-130.2,1732.2l-7.7,1228.8h1856.6h1854.7L4659.3,535.4z M6512.1-2071.6v-2363.9h-162.7h-162.7v2363.9V292.3h162.7h162.7V-2071.6z M9555.5-2071.6v-1521.7H8206.1H6856.6v1521.7v1521.7h1349.4h1349.4V-2071.6z"/></g></g>
</svg>